HIERARCHY
ROOT Hips
{
	OFFSET -276.353088 91.340736 254.724106
	CHANNELS 6 Xposition Yposition Zposition Zrotation Yrotation Xrotation 
	JOINT LeftUpLeg
	{
		OFFSET 0.103459 1.857828 10.548492
		CHANNELS 3 Zrotation Yrotation Xrotation
		JOINT LeftLeg
		{
			OFFSET 43.500004 -0.000011 -0.000004
			CHANNELS 3 Zrotation Yrotation Xrotation
			JOINT LeftFoot
			{
				OFFSET 42.372200 0.000004 -0.000018
				CHANNELS 3 Zrotation Yrotation Xrotation
				JOINT LeftToe
				{
					OFFSET 17.299999 -0.000001 -0.000005
					CHANNELS 3 Zrotation Yrotation Xrotation
					End Site
					{
						OFFSET 0.000000 0.000000 0.000000
					}
				}
			}
		}
	}
	JOINT RightUpLeg
	{
		OFFSET 0.103456 1.857824 -10.548500
		CHANNELS 3 Zrotation Yrotation Xrotation
		JOINT RightLeg
		{
			OFFSET 43.500046 -0.000004 0.000013
			CHANNELS 3 Zrotation Yrotation Xrotation
			JOINT RightFoot
			{
				OFFSET 42.372269 -0.000015 0.000020
				CHANNELS 3 Zrotation Yrotation Xrotation
				JOINT RightToe
				{
					OFFSET 17.299974 -0.000010 -0.000002
					CHANNELS 3 Zrotation Yrotation Xrotation
					End Site
					{
						OFFSET 0.000000 0.000000 0.000000
					}
				}
			}
		}
	}
	JOINT Spine
	{
		OFFSET 6.901967 -2.603733 0.000003
		CHANNELS 3 Zrotation Yrotation Xrotation
		JOINT Spine1
		{
			OFFSET 12.588101 0.000006 -0.000014
			CHANNELS 3 Zrotation Yrotation Xrotation
			JOINT Spine2
			{
				OFFSET 12.343203 -0.000006 0.000010
				CHANNELS 3 Zrotation Yrotation Xrotation
				JOINT Neck
				{
					OFFSET 25.832886 -0.000004 0.000009
					CHANNELS 3 Zrotation Yrotation Xrotation
					JOINT Head
					{
						OFFSET 11.766619 0.000000 -0.000008
						CHANNELS 3 Zrotation Yrotation Xrotation
						End Site
						{
							OFFSET 0.000000 0.000000 0.000000
						}
					}
				}
				JOINT LeftShoulder
				{
					OFFSET 19.745895 -1.480373 6.000121
					CHANNELS 3 Zrotation Yrotation Xrotation
					JOINT LeftArm
					{
						OFFSET 11.284116 -0.000025 -0.000019
						CHANNELS 3 Zrotation Yrotation Xrotation
						JOINT LeftForeArm
						{
							OFFSET 33.000046 0.000010 0.000041
							CHANNELS 3 Zrotation Yrotation Xrotation
							JOINT LeftHand
							{
								OFFSET 25.200005 0.000005 0.000001
								CHANNELS 3 Zrotation Yrotation Xrotation
								End Site
								{
									OFFSET 0.000000 0.000000 0.000000
								}
							}
						}
					}
				}
				JOINT RightShoulder
				{
					OFFSET 19.746092 -1.480366 -6.000068
					CHANNELS 3 Zrotation Yrotation Xrotation
					JOINT RightArm
					{
						OFFSET 11.284133 -0.000025 -0.000013
						CHANNELS 3 Zrotation Yrotation Xrotation
						JOINT RightForeArm
						{
							OFFSET 33.000114 0.000025 -0.000011
							CHANNELS 3 Zrotation Yrotation Xrotation
							JOINT RightHand
							{
								OFFSET 25.199759 0.000128 0.000418
								CHANNELS 3 Zrotation Yrotation Xrotation
								End Site
								{
									OFFSET 0.000000 0.000000 0.000000
								}
							}
						}
					}
				}
			}
		}
	}
}
MOTION
Frames: 14
Frame Time: 0.033333
-217.763397 41.139370 -186.798294 84.511918 49.057984 -118.650413 63.078006 -36.430610 -177.650693 -151.761093 3.994601 -0.013501 98.050876 0.359598 6.991748 21.454553 0.003089 0.000003 74.141198 36.828711 -164.240136 -134.017601 -4.521023 -3.512934 110.002293 2.432167 22.300697 21.454560 -0.003109 -0.000017 14.116463 0.681115 1.661188 18.237288 1.091554 3.409074 17.919741 1.112219 3.402440 12.259178 -19.762640 -29.651538 -34.149211 25.335629 -47.402029 46.196005 -81.261445 132.496135 -32.588147 -9.538281 -2.229088 -26.451885 -17.175190 1.304159 23.041611 -31.453916 -12.244905 73.177158 68.625527 -106.754586 -61.856317 1.348487 29.504959 -49.384651 14.266741 -1.711790 19.916582 62.715548 5.081836 
-217.323898 40.721691 -184.801193 84.296699 47.380056 -117.485510 61.854405 -36.468999 -177.664326 -151.781092 3.984521 0.238761 98.311892 0.182421 7.113073 21.454562 0.003087 -0.000001 72.566594 37.717992 -164.015040 -135.464713 -4.664348 -2.496978 110.644816 1.659715 20.332918 21.454562 -0.003110 -0.000018 14.312783 0.718975 1.776325 18.631964 1.142198 3.645358 18.314498 1.164291 3.638420 12.337950 -19.019570 -30.414996 -34.177601 24.471075 -47.642431 51.708978 -82.026931 126.977096 -35.929800 -8.750715 -6.466661 -32.624002 -21.313061 1.688591 21.442247 -33.893383 -6.601576 72.248423 68.730302 -107.651657 -61.552913 3.263615 29.752335 -47.450451 14.341220 -1.655927 21.539756 61.477378 6.412743 
-217.074097 40.209381 -183.013000 84.130049 45.322113 -116.465312 61.457298 -36.369596 -178.583355 -151.919608 3.971832 -0.136396 98.638409 0.461524 7.669199 21.454553 0.003099 -0.000000 71.334912 38.497005 -163.785710 -136.753706 -4.786110 -1.107297 111.449508 0.635239 18.228870 21.454560 -0.003109 -0.000018 14.547953 0.775540 1.982327 19.105805 1.212723 4.065646 18.788510 1.237366 4.058282 12.419301 -18.181482 -31.320526 -33.776826 23.424520 -47.784010 56.211023 -82.950400 122.439979 -40.647385 -6.428043 -9.723047 -41.232018 -24.132552 2.090345 11.401742 -41.220632 5.461272 71.265634 68.958819 -108.592010 -61.180436 4.935823 30.435572 -44.928124 14.300091 -1.577205 22.075967 59.841466 6.991209 
-216.948898 39.795391 -181.400208 83.996369 43.286187 -115.821703 61.504904 -36.376218 -179.588800 -151.952393 4.013239 -0.509592 99.186518 0.703990 8.081602 21.454553 0.003105 -0.000004 70.321189 38.884793 -163.524810 -137.652204 -4.892780 0.148569 111.941712 -0.221356 16.164570 21.454555 -0.003102 -0.000017 14.761055 0.850189 2.297553 19.537466 1.299847 4.705875 19.220439 1.328338 4.697977 13.048381 -17.662422 -32.352205 -33.900729 22.833756 -48.452788 54.594016 -83.596844 124.008068 -45.960988 -3.465893 -10.022690 -50.501555 -24.721124 2.422076 -0.505248 -43.545929 18.419605 70.970290 68.678085 -108.900543 -59.871232 6.569891 30.591482 -42.240472 14.199163 -1.493857 22.999755 57.890484 8.362983 
-216.961700 39.538502 -179.926193 83.610682 41.783129 -115.563003 61.564914 -36.307209 179.166968 -151.790217 4.033633 -0.971590 100.095411 0.963690 8.340969 21.454551 0.003091 -0.000004 68.968798 38.944591 -163.301244 -138.109799 -4.997097 1.365203 112.169991 -1.006990 14.381532 21.454567 -0.003111 -0.000018 14.825339 0.969817 2.688285 19.675016 1.467967 5.502681 19.358400 1.501249 5.493770 13.327957 -17.482627 -33.433141 -33.763664 22.216129 -49.148153 54.394062 -83.983043 124.186008 -51.609159 -1.093991 -7.759876 -58.042428 -23.158918 2.586707 -5.863522 -42.745366 23.122808 70.340266 68.363514 -109.537431 -58.217411 7.882802 30.444308 -39.490801 13.796780 -1.393847 23.646233 55.521856 10.250131 
-217.062607 39.368019 -178.559494 82.930463 40.568889 -115.618109 61.631597 -36.238498 177.489733 -151.508308 4.118891 -1.643246 100.922698 1.357262 8.525691 21.454546 0.003093 0.000000 67.386701 38.734607 -163.185172 -138.305511 -5.078017 2.629048 112.406322 -1.821221 12.769623 21.454560 -0.003110 -0.000017 14.813939 1.067559 3.006877 19.660551 1.608167 6.151940 19.344313 1.645360 6.142183 13.059352 -17.488296 -34.211151 -33.335896 21.492560 -49.460883 54.405086 -84.106915 124.168946 -57.456323 0.284797 -2.312093 -62.150637 -22.097909 2.671546 -3.286611 -39.947741 19.897482 69.977173 68.377099 -109.889595 -57.044801 9.000656 30.272850 -37.227014 13.253358 -1.301562 23.299806 52.387421 11.689229 
-217.238907 39.218048 -177.337799 82.159881 39.514693 -115.876919 61.653905 -36.177005 175.986162 -151.224801 4.179159 -2.197449 101.479290 1.676273 8.464466 21.454548 0.003102 -0.000008 65.810102 38.389297 -163.050085 -138.335400 -5.153065 3.934523 112.595300 -2.654367 11.314471 21.454560 -0.003110 -0.000017 14.773055 1.136310 3.152654 19.584408 1.722053 6.452795 19.268351 1.761040 6.442357 12.608710 -18.072177 -34.506167 -33.126295 21.386926 -49.742697 54.461886 -83.935635 124.122063 -63.234247 1.575527 3.741464 -62.586471 -22.124905 2.690769 1.969852 -37.695766 13.993408 70.523971 68.161012 -109.373650 -56.236906 10.036461 29.689664 -35.295522 12.802371 -1.226514 22.089527 48.465817 12.998880 
-217.478104 39.012810 -176.276199 81.493582 38.436087 -116.357996 61.648598 -36.287794 175.493146 -151.054797 4.139281 -1.942487 101.745913 1.468377 8.148714 21.454551 0.003091 0.000003 64.531900 37.881616 -162.908153 -138.275800 -5.213745 5.043605 112.777392 -3.352998 9.983390 21.454563 -0.003110 -0.000017 14.764987 1.165605 3.172676 19.570351 1.777239 6.497506 19.254310 1.816503 6.486735 12.044470 -18.261672 -34.526360 -33.297394 21.050858 -49.718012 55.731010 -83.652421 122.877904 -68.967692 2.787703 8.127906 -58.708850 -22.042778 2.533988 5.164282 -35.911127 11.811970 70.700060 68.187384 -109.200313 -56.053197 10.435231 29.184302 -34.723107 12.786233 -1.212431 20.701846 43.488357 14.838284 
-217.748001 38.767769 -175.371094 81.037360 37.351904 -116.843910 61.793302 -36.380504 174.834306 -151.009089 4.166809 -2.040522 102.053190 1.491183 7.870831 21.454550 0.003098 -0.000008 63.577716 37.422002 -162.799717 -138.189098 -5.272378 5.845265 112.862196 -3.842286 8.782387 21.454555 -0.003111 -0.000017 14.787563 1.163715 3.052512 19.614085 1.792628 6.258812 19.297880 1.830441 6.247948 11.246667 -17.546536 -34.189574 -33.546184 20.276286 -49.049733 57.631169 -83.104196 121.027100 -74.253801 4.583261 9.218942 -50.829233 -22.348920 2.270874 5.940142 -38.613040 11.797589 71.347118 68.421898 -108.552975 -56.304862 10.331358 29.763212 -35.479650 13.000115 -1.243619 18.531999 37.424075 15.948724 
-218.036697 38.468658 -174.601700 80.682416 36.207198 -117.567705 62.113515 -36.723106 174.179058 -151.122498 4.206097 -2.340815 102.516597 1.643409 7.711110 21.454550 0.003100 -0.000000 62.902805 36.821792 -162.721047 -138.086891 -5.311084 6.333566 112.908307 -4.123415 7.632053 21.454557 -0.003114 -0.000017 14.857333 1.087540 2.851042 19.746960 1.672095 5.846410 19.430520 1.707447 5.836268 10.197732 -16.273704 -33.734523 -33.565042 19.053146 -47.901227 63.341132 -81.854565 115.451890 -77.294826 5.757858 7.952020 -40.777923 -21.855687 1.926962 6.461519 -47.089670 8.356770 72.620306 68.753429 -107.287505 -56.653069 10.319791 29.939362 -36.445268 13.412264 -1.293088 16.387586 30.793549 17.074768 
-218.347595 38.137131 -173.962601 80.492058 35.020279 -118.399512 62.490200 -37.170002 173.669403 -151.357101 4.234223 -2.765474 102.915815 1.885228 7.592462 21.454548 0.003089 -0.000000 62.620281 36.201283 -162.444793 -137.942910 -5.343582 6.720419 113.069506 -4.342694 6.507527 21.454557 -0.003109 -0.000017 14.982124 0.986548 2.623623 19.988784 1.504642 5.378586 19.672097 1.537177 5.369453 9.206002 -14.433863 -33.337494 -33.935747 17.408352 -46.582501 68.335947 -80.735752 110.589075 -76.909214 5.930390 3.779160 -35.926860 -19.082340 1.620691 1.352449 -56.136007 12.485182 73.492665 69.765984 -106.358210 -57.266755 10.279343 29.716145 -37.372954 13.517692 -1.322339 14.174149 25.251141 17.510599 
-218.659897 37.768509 -173.429901 80.228529 33.943312 -119.313515 62.781699 -37.485796 173.503252 -151.679896 4.236500 -2.924282 103.218495 1.948857 7.264750 21.454551 0.003097 -0.000003 62.361301 35.667306 -162.097396 -137.810910 -5.378831 7.068039 113.464311 -4.538200 5.360753 21.454555 -0.003111 -0.000018 15.052559 0.882312 2.335660 20.122017 1.344652 4.789387 19.805040 1.373657 4.781225 8.863461 -13.102237 -32.974155 -34.244970 16.329220 -45.568594 70.224139 -80.229014 108.760101 -74.520171 6.219462 1.042750 -35.908104 -17.694551 1.530525 -2.488272 -59.002917 16.004023 74.243740 70.447104 -105.571386 -56.982957 9.566537 29.021877 -38.827341 13.698451 -1.370408 10.731240 21.909975 15.586720 
-218.999405 37.457050 -173.021500 80.052993 32.871334 -120.180607 63.302801 -37.659699 173.355474 -151.960303 4.246530 -3.018584 103.451698 1.969133 6.737988 21.454550 0.003093 0.000002 62.309999 35.401994 -161.800283 -137.637997 -5.393014 7.146371 113.732909 -4.546021 4.210779 21.454562 -0.003106 -0.000018 15.126747 0.829347 2.123992 20.266360 1.273563 4.360575 19.949179 1.299985 4.352836 8.980238 -12.280690 -32.783074 -34.488880 15.806108 -45.041457 69.891051 -80.049831 109.102075 -73.017830 6.368499 0.158351 -35.437887 -16.868457 1.466053 -1.940287 -59.952245 14.544678 74.676521 71.138503 -105.093812 -55.362307 8.122329 28.002410 -41.694036 14.219621 -1.480160 6.065825 20.886377 11.308759 
-219.358994 37.223530 -172.732498 80.014382 31.896403 -121.039900 63.925298 -37.763402 173.365350 -152.207501 4.260319 -3.017597 103.646898 1.923935 6.061276 21.454551 0.003097 -0.000001 62.467913 35.283401 -161.455249 -137.400101 -5.395167 7.021186 113.778514 -4.417998 3.170107 21.454551 -0.003100 -0.000015 15.219967 0.827569 1.971316 20.451519 1.293437 4.058012 20.134199 1.318033 4.050162 8.592118 -12.035308 -32.549014 -34.115350 15.555097 -44.562582 69.006125 -79.762608 109.996030 -72.124489 6.848196 -0.848001 -34.206940 -16.780277 1.432143 -1.106795 -60.002023 12.998026 75.314023 72.057205 -104.397010 -53.303821 6.627123 26.701829 -44.885978 14.578132 -1.594281 1.756422 21.352882 5.933263 
